<svg width="40" height="40" viewBox="0 0 40 40" fill="none" xmlns="http://www.w3.org/2000/svg">
<path d="M0 20C0 8.95431 8.95431 0 20 0C31.0457 0 40 8.95431 40 20C40 31.0457 31.0457 40 20 40C8.95431 40 0 31.0457 0 20Z" fill="#D4735E"/>
<path d="M25.0001 28.9999C25.2654 28.9999 25.5197 28.8946 25.7073 28.707C25.8948 28.5195 26.0001 28.2651 26.0001 27.9999V22.6499C26.0001 22.1929 26.3161 21.8059 26.7271 21.6089C27.5781 21.203 28.2583 20.5095 28.6478 19.6508C29.0372 18.7921 29.1108 17.8235 28.8556 16.9159C28.6003 16.0082 28.0327 15.2199 27.2528 14.6901C26.473 14.1602 25.531 13.9228 24.5931 14.0199C24.2069 13.1221 23.566 12.3572 22.7497 11.8197C21.9334 11.2823 20.9775 10.9958 20.0001 10.9958C19.0228 10.9958 18.0669 11.2823 17.2506 11.8197C16.4343 12.3572 15.7934 13.1221 15.4071 14.0199C14.4697 13.9235 13.5284 14.1612 12.7491 14.691C11.9698 15.2209 11.4026 16.0088 11.1474 16.916C10.8923 17.8232 10.9657 18.7913 11.3545 19.6497C11.7434 20.508 12.4229 21.2015 13.2731 21.6079C13.6841 21.8059 14.0001 22.1929 14.0001 22.6489V27.9999C14.0001 28.2651 14.1055 28.5195 14.293 28.707C14.4806 28.8946 14.7349 28.9999 15.0001 28.9999H25.0001Z" stroke="white" stroke-width="2" stroke-linecap="round" stroke-linejoin="round"/>
<path d="M14 25H26" stroke="white" stroke-width="2" stroke-linecap="round" stroke-linejoin="round"/>
</svg>
